<svg xmlns="http://www.w3.org/2000/svg" xmlns:xlink="http://www.w3.org/1999/xlink" width="500" zoomAndPan="magnify" viewBox="0 0 375 374.999991" height="500" preserveAspectRatio="xMidYMid meet" version="1.0"><defs><g/><clipPath id="104cd84e73"><path d="M 122.53125 77.929688 L 252.28125 77.929688 L 252.28125 227.929688 L 122.53125 227.929688 Z M 122.53125 77.929688 " clip-rule="nonzero"/></clipPath></defs><rect x="-37.5" width="450" fill="#ffffff" y="-37.499999" height="449.999989" fill-opacity="1"/><rect x="-37.5" width="450" fill="#ffffff" y="-37.499999" height="449.999989" fill-opacity="1"/><rect x="-37.5" width="450" fill="#ffffff" y="-37.499999" height="449.999989" fill-opacity="1"/><g fill="#272626" fill-opacity="1"><g transform="translate(108.137864, 270.082637)"><g><path d="M 20.09375 -11.515625 L 20.09375 -7.0625 C 19.5625 -4.613281 18.398438 -2.757812 16.609375 -1.5 C 14.816406 -0.25 12.8125 0.375 10.59375 0.375 C 7.820312 0.375 5.457031 -0.660156 3.5 -2.734375 C 1.550781 -4.816406 0.578125 -7.332031 0.578125 -10.28125 C 0.578125 -13.269531 1.53125 -15.796875 3.4375 -17.859375 C 5.351562 -19.921875 7.738281 -20.953125 10.59375 -20.953125 C 13.9375 -20.953125 16.582031 -19.78125 18.53125 -17.4375 L 15.46875 -14.0625 C 14.363281 -15.820312 12.832031 -16.703125 10.875 -16.703125 C 9.425781 -16.703125 8.191406 -16.070312 7.171875 -14.8125 C 6.148438 -13.5625 5.640625 -12.050781 5.640625 -10.28125 C 5.640625 -8.53125 6.148438 -7.035156 7.171875 -5.796875 C 8.191406 -4.554688 9.425781 -3.9375 10.875 -3.9375 C 12.070312 -3.9375 13.113281 -4.296875 14 -5.015625 C 14.894531 -5.742188 15.34375 -6.707031 15.34375 -7.90625 L 10.59375 -7.90625 L 10.59375 -11.515625 Z M 20.09375 -11.515625 "/></g></g></g><g fill="#272626" fill-opacity="1"><g transform="translate(132.697118, 270.082637)"><g><path d="M 11.9375 -20.578125 L 20.25 0 L 15.21875 0 L 13.6875 -4.109375 L 5.859375 -4.109375 L 4.34375 0 L -0.703125 0 L 7.609375 -20.578125 Z M 12.09375 -8.234375 L 9.796875 -14.21875 L 9.75 -14.21875 L 7.453125 -8.234375 Z M 12.09375 -8.234375 "/></g></g></g><g fill="#272626" fill-opacity="1"><g transform="translate(156.134459, 270.082637)"><g><path d="M 0.203125 -16.453125 L 0.203125 -20.578125 L 14.65625 -20.578125 L 14.65625 -16.453125 L 9.78125 -16.453125 L 9.78125 0 L 5.09375 0 L 5.09375 -16.453125 Z M 0.203125 -16.453125 "/></g></g></g><g fill="#272626" fill-opacity="1"><g transform="translate(174.884678, 270.082637)"><g><path d="M 13.265625 -20.578125 L 13.265625 -16.453125 L 6.1875 -16.453125 L 6.1875 -12.375 L 12.96875 -12.375 L 12.96875 -8.25 L 6.1875 -8.25 L 6.1875 -4.109375 L 13.265625 -4.109375 L 13.265625 0 L 1.5 0 L 1.5 -20.578125 Z M 13.265625 -20.578125 "/></g></g></g><g fill="#272626" fill-opacity="1"><g transform="translate(193.235984, 270.082637)"><g><path d="M 17.28125 0 L 13.984375 -11.546875 L 10.703125 0 L 5.484375 0 L -0.375 -20.578125 L 4.84375 -20.578125 L 8.359375 -6.453125 L 8.484375 -6.453125 L 12.21875 -20.578125 L 15.765625 -20.578125 L 19.5 -6.453125 L 19.625 -6.453125 L 23.140625 -20.578125 L 28.328125 -20.578125 L 22.46875 0 Z M 17.28125 0 "/></g></g></g><g fill="#272626" fill-opacity="1"><g transform="translate(225.075232, 270.082637)"><g><path d="M 11.9375 -20.578125 L 20.25 0 L 15.21875 0 L 13.6875 -4.109375 L 5.859375 -4.109375 L 4.34375 0 L -0.703125 0 L 7.609375 -20.578125 Z M 12.09375 -8.234375 L 9.796875 -14.21875 L 9.75 -14.21875 L 7.453125 -8.234375 Z M 12.09375 -8.234375 "/></g></g></g><g fill="#272626" fill-opacity="1"><g transform="translate(248.512578, 270.082637)"><g><path d="M -0.75 -20.578125 L 4.890625 -20.578125 L 9.171875 -13.984375 L 13.46875 -20.578125 L 19.109375 -20.578125 L 11.515625 -9.234375 L 11.515625 0 L 6.828125 0 L 6.828125 -9.234375 Z M -0.75 -20.578125 "/></g></g></g><g clip-path="url(#104cd84e73)"><path fill="#393536" d="M 187.40625 77.929688 L 122.546875 115.429688 L 122.546875 117.785156 C 122.546875 131.578125 124.824219 145.25 129.222656 158.230469 C 129.222656 158.230469 129.21875 158.230469 129.21875 158.230469 C 129.847656 160.089844 130.523438 161.933594 131.242188 163.757812 C 131.289062 163.878906 131.335938 164 131.382812 164.125 C 131.507812 164.433594 131.632812 164.746094 131.757812 165.054688 C 131.808594 165.175781 131.855469 165.296875 131.902344 165.421875 L 131.90625 165.421875 C 132.621094 167.164062 133.371094 168.894531 134.160156 170.609375 C 192.417969 151.316406 197.515625 119.3125 197.515625 119.3125 C 184.652344 142.917969 154.113281 152.933594 137.339844 156.683594 C 133.257812 145.0625 130.96875 132.734375 130.714844 120.125 L 187.40625 87.347656 L 244.097656 120.125 C 243.292969 160.347656 221.78125 197.667969 187.40625 218.484375 C 174.929688 210.929688 164.152344 201.199219 155.4375 189.945312 C 207.226562 153.78125 205.542969 110.726562 205.542969 110.726562 C 192.554688 160.785156 148.390625 178.375 139.769531 181.367188 C 141.210938 183.832031 142.738281 186.242188 144.339844 188.597656 C 144.339844 188.597656 144.339844 188.597656 144.335938 188.597656 C 144.394531 188.679688 144.453125 188.761719 144.511719 188.847656 C 144.785156 189.246094 145.058594 189.648438 145.335938 190.046875 C 145.34375 190.058594 145.355469 190.070312 145.363281 190.082031 C 146.410156 191.574219 147.484375 193.042969 148.59375 194.484375 C 148.59375 194.484375 148.59375 194.484375 148.597656 194.484375 C 158.597656 207.503906 171.09375 218.503906 185.371094 226.757812 L 187.40625 227.933594 L 189.441406 226.757812 C 208.519531 215.726562 224.421875 199.800781 235.433594 180.699219 C 246.445312 161.597656 252.265625 139.839844 252.265625 117.785156 L 252.265625 115.429688 L 187.40625 77.929688 " fill-opacity="1" fill-rule="nonzero"/></g></svg>